<?xml version="1.0" encoding="utf-8"?>
<!-- Generator: Adobe Illustrator 27.3.1, SVG Export Plug-In . SVG Version: 6.00 Build 0)  -->
<svg version="1.1" id="OBJECTS" xmlns="http://www.w3.org/2000/svg" xmlns:xlink="http://www.w3.org/1999/xlink" x="0px" y="0px"
	 viewBox="0 0 500 500" style="enable-background:new 0 0 500 500;" xml:space="preserve">
<style type="text/css">
	.st0{display:none;}
	.st1{display:inline;}
	.st2{fill:url(#SVGID_1_);}
	.st3{display:inline;opacity:0.3;}
	.st4{fill:#FFFFFF;}
	.st5{display:inline;opacity:0.3;fill:url(#SVGID_00000016034926028422251070000009444471351659606404_);}
	.st6{display:inline;opacity:0.3;fill:url(#SVGID_00000063603415813306790400000005777393538890293667_);}
	.st7{display:inline;opacity:0.3;fill:url(#SVGID_00000101093582840373063440000002255424843827463821_);}
	.st8{fill:url(#SVGID_00000100357781856184913970000009414408531368186758_);}
	.st9{fill:url(#SVGID_00000158731973882909733150000013690003481736339087_);}
	.st10{display:inline;opacity:0.3;fill:url(#SVGID_00000025425419716894761590000013389533763495045779_);}
	.st11{display:inline;opacity:0.3;fill:url(#SVGID_00000098181894356355086660000011923803424289024424_);}
	.st12{fill:url(#SVGID_00000026868324843238030880000016509221954536820109_);}
	.st13{fill:url(#SVGID_00000177463203805666617130000000889869947410558870_);}
	.st14{opacity:0.5;}
	.st15{opacity:0.5;fill:url(#SVGID_00000171677365633512198880000009635440290198897304_);}
	.st16{fill:url(#SVGID_00000038399264897831261640000008626846224842896787_);}
	.st17{opacity:0.3;fill:#FFFFFF;}
	.st18{font-family:'MontserratRoman-SemiBold';}
	.st19{font-size:42.7633px;}
	.st20{letter-spacing:4;}
	.st21{fill:url(#SVGID_00000083067287260437732240000005618479305182982841_);}
	.st22{fill:url(#SVGID_00000116195730720922524850000011003323060307205785_);}
	.st23{fill:url(#SVGID_00000178886983559876460430000008744072918762844318_);}
	.st24{fill:url(#SVGID_00000039102094349442704390000007607437123115240882_);}
	.st25{fill:url(#SVGID_00000146467616637902027050000006764220156252029117_);}
	.st26{fill:url(#SVGID_00000178923498279169865420000008972614816322903942_);}
	.st27{fill:url(#SVGID_00000005229110999151884580000016955874938893245877_);}
	.st28{fill:url(#SVGID_00000017480261985972616340000015834331688243208086_);}
	.st29{fill:#E6E6E6;}
	.st30{font-family:'MontserratItalic-LightItalic';}
	.st31{font-size:15.9945px;}
	.st32{fill:#002150;}
</style>
<g class="st0">
	<g class="st1">
		
			<image style="overflow:visible;opacity:0.4;" width="228" height="213" xlink:href="624336E.png"  transform="matrix(0.48 0 0 0.48 168.9874 179.0674)">
		</image>
		<g>
			<linearGradient id="SVGID_1_" gradientUnits="userSpaceOnUse" x1="215.68" y1="182.3604" x2="222.362" y2="263.4986">
				<stop  offset="0" style="stop-color:#FEE179"/>
				<stop  offset="0.4671" style="stop-color:#F48E39"/>
				<stop  offset="1" style="stop-color:#DD393A"/>
			</linearGradient>
			<path class="st2" d="M205.1,265.3c-1.2-0.7-2.3-1.4-3.4-2.1c-1.5-1-4.7-22.5-6.1-23.6c-0.7-0.6,0.3,19.2-0.4,18.6
				c-9.5-8.4-15.9-19.1-19.1-30.4c-0.3-1.2,3.4-20.8,3.2-21.9c-0.3-1.2-4.6,16-4.8,14.7c-1.9-11.8-0.2-23.7,5.1-33.5
				c0,0,14.2-8.3,28.3,2.8c0.7,0.6-10.8,0.3-10,1c0.5,0.5,13.3,1.9,13.8,2.5c2.2,2.3,4.3,5.1,6.4,8.6c16.5,27.7,28.7,28.8,38.4,30.6
				c9.7,1.9,9.2,22,9.2,22l-45.9,14L205.1,265.3z"/>
		</g>
	</g>
	<g class="st3">
		<path class="st4" d="M199.7,192.6c0.5,0.5,11.2,1.7,13.4,2.3c-0.4-0.5-0.9-1-1.3-1.5c-0.3-0.3-4-0.8-7.6-1.4
			C201.7,192.2,199.3,192.3,199.7,192.6z"/>
		<path class="st4" d="M258.3,234.3c1.1,0.2,2,0.7,2.9,1.3c-1.2-1.5-2.7-2.6-4.6-2.9c-6.3-1.2-13.7-2.1-22.7-10.3
			C243.6,232.1,251.6,233,258.3,234.3z"/>
		<path class="st4" d="M178,229.5c-0.3-1.2,3.4-20.8,3.2-21.9c-0.2-0.9-2.5,8-3.9,12.4c-0.7,4-1.2,7.4-1.1,7.9
			c3.1,10.9,9.1,21.3,18.1,29.5C186.3,249.4,180.8,239.6,178,229.5z"/>
		<path class="st4" d="M181.4,188.8c0,0,12.8-7.5,26.2,1.3c0.3-0.1,0.4-0.1,0.3-0.2c-14.1-11-28.3-2.8-28.3-2.8
			c-5.3,9.7-6.9,21.6-5.1,33.5c0.1,0.4,0.5-1.1,1.2-3.2C175,207.2,176.9,197.2,181.4,188.8z"/>
		<path class="st4" d="M197.4,241.2c-0.2-0.2-0.3,1.1-0.3,3c1.5,6.7,3.5,18.2,4.6,18.9c0.4,0.3,0.8,0.5,1.2,0.8
			C201.3,259.7,198.6,242.2,197.4,241.2z"/>
	</g>
	
		<linearGradient id="SVGID_00000016765612089161539230000011149140625112513207_" gradientUnits="userSpaceOnUse" x1="181.7613" y1="185.1536" x2="188.4433" y2="266.2919">
		<stop  offset="0" style="stop-color:#FEE179"/>
		<stop  offset="0.4671" style="stop-color:#F48E39"/>
		<stop  offset="1" style="stop-color:#DD393A"/>
	</linearGradient>
	<path style="display:inline;opacity:0.3;fill:url(#SVGID_00000016765612089161539230000011149140625112513207_);" d="M176.7,229.4
		c3.3,10.7,9.5,20.9,18.6,28.8c0.4,0.4,0.2-7.2,0.1-12.9C188,241.8,181.4,236.2,176.7,229.4z"/>
	
		<linearGradient id="SVGID_00000107557878494630285640000013834647193955409294_" gradientUnits="userSpaceOnUse" x1="226.106" y1="181.5016" x2="232.788" y2="262.6398">
		<stop  offset="0" style="stop-color:#FEE179"/>
		<stop  offset="0.4671" style="stop-color:#F48E39"/>
		<stop  offset="1" style="stop-color:#DD393A"/>
	</linearGradient>
	<path style="display:inline;opacity:0.3;fill:url(#SVGID_00000107557878494630285640000013834647193955409294_);" d="M256.6,232.7
		c-1-0.2-2.1-0.4-3.1-0.6c-7,13.2-25.9,17.7-39.7,17.6c-5.5,0-11-1.2-16.1-3.4c1.5,6.7,3.2,16.2,4.1,16.8c1.1,0.7,2.2,1.4,3.4,2.1
		l14.7,3.3l45.9-14C265.8,254.7,266.2,234.5,256.6,232.7z"/>
	
		<linearGradient id="SVGID_00000025419851289811972200000004542661201033714840_" gradientUnits="userSpaceOnUse" x1="219.9122" y1="182.0119" x2="226.5942" y2="263.1504">
		<stop  offset="0" style="stop-color:#FEE179"/>
		<stop  offset="0.4671" style="stop-color:#F48E39"/>
		<stop  offset="1" style="stop-color:#DD393A"/>
	</linearGradient>
	<path style="display:inline;opacity:0.3;fill:url(#SVGID_00000025419851289811972200000004542661201033714840_);" d="M265,245.2
		c-1.4-0.1-2.7-0.4-4.1-0.5c-2.1-0.2-4.2-0.5-6.3-0.7c-4.1-0.5-8.1-1.1-12-2.2c-0.3-0.1-0.5-0.6-0.2-0.8c0.5-0.4,1.1-0.8,1.7-1.1
		c-5.6-0.8-11.4-1.2-16.6-3.7c-0.3-0.1-0.3-0.6-0.1-0.8c1.3-1.2,3.2-0.9,4.8-1.2c-0.7-0.7-1.8-1.2-2.7-1.6c-1.2-0.5-2.5-1-3.8-1.4
		c-1.2-0.5-2.4-1-3.5-1.7c-3.1-1.7-6.1-3.8-8.6-6.4c-0.2-0.2-0.2-0.7,0.2-0.8c2-0.4,4.1,0.2,6.1-0.2c-1.8-2.7-4.7-4.5-7.2-6.3
		c-2.9-2.1-5.8-4.8-7.5-8c-0.2-0.3,0-0.7,0.4-0.7c0.9,0,1.8,0.2,2.6,0.2c-1.1-2.3-3.6-3.8-5.6-5.1c-2.4-1.5-5-3-6.6-5.4
		c-0.3-0.4,0.2-0.8,0.5-0.7c0.3,0.1,0.7-0.1,1-0.2c-0.4-1-1.4-1.7-2.2-2.3c-2.1-1.5-4.5-2.6-6.8-3.9c-1.5-0.8-2.9-1.8-4.4-2.8
		c-0.5-0.3-1-0.7-1.5-1c-1.1,0.4-1.9,0.8-2.4,1c0.1,2.9,0.6,5.8,1,8.7c0.2,1.2,0.4,2.4,0.5,3.6c0.1,1,0.1,2.2,0.9,2.9
		c0.3,0.3,0.7,0.6,1,0.8c0.4,0.3,0.8,0.5,1.1,0.9c0.5,0.7,0.6,1.8,0.7,2.6c0.1,1,0.2,1.9,0.4,2.9c0.3,1.4,0.5,2.8,0.8,4.2
		c0.5,2.4,1,4.9,1.8,7.2c0.7-1.2,0.6-2.8,1.1-4c0.2-0.4,0.6-0.5,0.9-0.1c2,3.1,2.9,6.7,4.3,10.1c0.8,1.9,1.8,3.7,2.8,5.4
		c0.9,1.4,1.8,2.8,2.7,4.1c0.1-1,0.1-2.1,0.1-3.1c0-0.3,0.4-0.6,0.7-0.4c1.5,1.1,2.5,2.6,3.4,4.2c0.9,1.4,1.7,2.8,2.7,4.1
		c1.1,1.5,2.2,3,3.4,4.4c2.2,2.7,4.7,5.4,7.5,7.5c0.4-0.9,0.2-2,0-2.9c-0.2-1.1-0.5-2.3-0.5-3.4c0-0.4,0.4-0.6,0.7-0.4
		c0.8,0.4,1.5,0.8,2.2,1.3c2.8,2,5,4.6,7.6,6.8c2.8,2.4,6.1,4.1,9.6,5.3c1.8,0.6,3.6,1.1,5.4,1.7c0.2,0.1,0.5,0.2,0.7,0.2l22-6.7
		C265.8,254.7,265.9,250.2,265,245.2z"/>
	<g class="st1">
		
			<image style="overflow:visible;opacity:0.4;" width="315" height="224" xlink:href="6243372.png"  transform="matrix(0.48 0 0 0.48 166.5874 161.7874)">
		</image>
		<g>
			
				<linearGradient id="SVGID_00000170977800380803096690000013817852177473050269_" gradientUnits="userSpaceOnUse" x1="191.3915" y1="156.145" x2="254.1947" y2="236.4857">
				<stop  offset="0" style="stop-color:#FEE179"/>
				<stop  offset="1" style="stop-color:#F48E39"/>
			</linearGradient>
			<path style="fill:url(#SVGID_00000170977800380803096690000013817852177473050269_);" d="M179.1,166.6
				c3.9,13.7,9.6,26.9,16.8,39.3c15.4,26.7,39.7,48.6,72,48.7c12.7,0.1,25.3-3,37.1-7.7c-12.5,5.6-26,9.5-39.8,9.5
				c-32,0.3-57.8-21.6-74.2-47.4c-7.8-12.1-14.1-25.2-18.8-38.8c0,0-0.2-0.7-0.2-0.7l-0.2-0.7L179.1,166.6L179.1,166.6z"/>
		</g>
	</g>
	<g class="st1">
		
			<image style="overflow:visible;opacity:0.4;" width="324" height="286" xlink:href="6243375.png"  transform="matrix(0.48 0 0 0.48 200.1874 148.8274)">
		</image>
		<g>
			
				<linearGradient id="SVGID_00000134965118545958207330000000114759863253267350_" gradientUnits="userSpaceOnUse" x1="284.4141" y1="149.6668" x2="269.0202" y2="271.4179">
				<stop  offset="0" style="stop-color:#2FA27B"/>
				<stop  offset="0.4671" style="stop-color:#EE7349"/>
				<stop  offset="1" style="stop-color:#A01F58"/>
			</linearGradient>
			<path style="fill:url(#SVGID_00000134965118545958207330000000114759863253267350_);" d="M328.5,238
				c-13.1,19.2-33.4,29.2-54.7,33.1c-4.8,0.9-9.7,1.5-14.5,1.8c-20,1.3-39.7-2.1-54.1-7.6c21.2-3.7,45.5-16.3,59-46.1
				c0.6-1.3,5.7,14.5,6.2,13.1c0.5-1.2-3.6-19.5-3.2-20.7c0.3-0.9,10.9,19.7,11.2,18.9c0.5-1.2-9.3-23.8-8.8-24.9
				c10-22.6,29.3-41.5,43.2-48.6c0.9-0.5,0.4,29.8,1.3,29.4c0.7-0.3,2.8-31.2,3.4-31.4c2.6-0.9,4.9-1.2,6.7-1
				c10.5,1.5,26.2,30,14.8,63.4c-0.4,1.3-13.8,11.5-14.3,12.8c-0.5,1.3,11.8-6.3,11.1-4.9C333.8,229.5,331.4,233.7,328.5,238z"/>
		</g>
	</g>
	<g class="st3">
		<path class="st4" d="M326.6,232.1c-0.3,0.8,4.2-1.7,7.6-3.5c0.6-1.1,1.1-2.2,1.6-3.3c0.2-0.4-1,0.1-2.6,0.9
			C329.9,228.9,326.8,231.5,326.6,232.1z"/>
		<path class="st4" d="M280.3,232.4c0.5-1.2-9.3-23.8-8.8-24.9c9.7-21.8,27.9-40.1,41.7-47.8c-0.1-1.8-0.2-2.8-0.4-2.7
			c-13.9,7.2-33.2,26-43.2,48.6c-0.4,1,6.9,18.4,8.5,23.5C279.3,231.3,280.2,232.7,280.3,232.4z"/>
		<path class="st4" d="M319.3,156.8c2.6-0.9,4.9-1.2,6.7-1c1.8,0.3,3.7,1.3,5.6,3c-2.5-2.8-5.2-4.6-7.5-4.9c-1.9-0.3-4.1,0.1-6.7,1
			c-0.4,0.1-1.3,11-2.1,20C315.4,181.9,318.7,157.1,319.3,156.8z"/>
		<path class="st4" d="M265.7,221.9c-0.8-1.8-1.4-3.1-1.6-2.7c-13.5,29.8-37.8,42.4-59,46.1c1.4,0.5,2.8,1,4.2,1.5
			C229.8,262.6,252.6,250,265.7,221.9z"/>
		<path class="st4" d="M272.3,234.2c0.4-1.1-2.8-15.7-3.2-19.7c-1.1-1.9-1.8-3.1-1.9-2.9c-0.4,1,2.4,13.7,3.1,18.7
			C271.2,232.9,272,234.7,272.3,234.2z"/>
	</g>
	
		<linearGradient id="SVGID_00000160179226049300139630000006453650699679322779_" gradientUnits="userSpaceOnUse" x1="278.7924" y1="148.9557" x2="263.3985" y2="270.7071">
		<stop  offset="0" style="stop-color:#2FA27B"/>
		<stop  offset="0.4671" style="stop-color:#EE7349"/>
		<stop  offset="1" style="stop-color:#A01F58"/>
	</linearGradient>
	<path style="display:inline;opacity:0.3;fill:url(#SVGID_00000160179226049300139630000006453650699679322779_);" d="M320.8,244.7
		c-6.6,3.5-18.5,6.2-23.1,0.1c-10,13-30.6,24-43.3,9c-3-3.5-4.6-7.7-5.1-12.1c-13.1,14.1-29.4,21.1-44.2,23.6
		c14.4,5.5,34.1,8.9,54.1,7.6c4.9-0.3,9.7-0.9,14.5-1.8c20-3.7,39.1-12.8,52.3-29.8C324.4,242.6,322.7,243.7,320.8,244.7z"/>
	
		<linearGradient id="SVGID_00000111193446146301746370000001605515024523297704_" gradientUnits="userSpaceOnUse" x1="295.7511" y1="151.1004" x2="280.3572" y2="272.8513">
		<stop  offset="0" style="stop-color:#FEE179"/>
		<stop  offset="0.4671" style="stop-color:#F48E39"/>
		<stop  offset="1" style="stop-color:#DD393A"/>
	</linearGradient>
	<path style="display:inline;opacity:0.3;fill:url(#SVGID_00000111193446146301746370000001605515024523297704_);" d="M290.7,266.5
		c2.4-1.8,4.7-3.8,6.8-5.9c1.2-1.2,2.3-2.4,3.4-3.7c1.1-1.2,2-2.6,3-3.9c0.9-1.1,2-2.2,3-3.3c0.8-0.9,1.5-1.8,1.9-2.9
		c-1.4,0.3-2.8,1-4.3,0.9c-0.3,0-0.5-0.3-0.5-0.6c0.3-1.8,1.5-3.5,2.5-4.9c1.1-1.5,2.4-3,3.5-4.5c1.2-1.6,2.1-3.2,3-5
		c1.1-2.3,2.2-4.5,3.2-6.8c0.5-1.1,1-2.2,1.5-3.2c0.4-0.7,0.7-1.5,0.8-2.3c-0.4,0.2-0.9,0.4-1.3,0.6c-0.4,0.2-0.8-0.1-0.7-0.5
		c0.6-3.7,0.9-7.5,0.8-11.2c-0.1-3.4-0.5-7-1.8-10.2c-2.8,4.1-4,9.4-8.4,12.2c-0.3,0.2-0.6,0-0.7-0.3c-0.1-0.3-0.3-0.6-0.5-0.8
		c-1.6,2.8-2.8,5.7-4.1,8.6c-1.8,3.9-3.6,7.9-5.8,11.6c-1.1,1.9-2.3,3.8-3.8,5.4c-1.2,1.3-2.7,2.6-4.4,3.1c-0.1,0-0.4,0-0.5-0.1
		c-0.7-0.9-1.1-2.1-1.8-3c-1.2,1.9-2.4,3.8-3.6,5.6c-0.9,1.4-1.8,2.8-2.6,4.2c-0.7,1.3-1.5,2.6-2.3,3.9c-1.5,2.3-3.4,4.8-6.1,5.8
		c-0.2,0.1-0.4,0-0.5-0.2c-0.6-1.1-1.1-2.2-1.9-3.2c-1.4,1.4-2.7,2.9-4,4.4c-2.3,2.7-4.6,5.4-6.5,8.4c-0.6,0.9-1.3,2.1-2.4,2.4
		c-1.1,0.3-2.1-0.5-2.9-1.3c-1.4,1.2-2,3.1-2.7,4.7c-0.4,0.9-0.9,1.9-1.5,2.7c3.5,0.1,7,0,10.6-0.2c4.9-0.3,9.7-0.9,14.5-1.8
		C279.5,270,285.2,268.5,290.7,266.5z"/>
	<g class="st1">
		
			<image style="overflow:visible;opacity:0.4;" width="155" height="192" xlink:href="6243376.png"  transform="matrix(0.48 0 0 0.48 254.4274 193.4674)">
		</image>
		<g>
			
				<linearGradient id="SVGID_00000060740410027177730430000003267465567532000137_" gradientUnits="userSpaceOnUse" x1="313.2405" y1="200.1984" x2="270.8186" y2="272.0073">
				<stop  offset="0" style="stop-color:#FEE179"/>
				<stop  offset="1" style="stop-color:#F48E39"/>
			</linearGradient>
			<path style="fill:url(#SVGID_00000060740410027177730430000003267465567532000137_);" d="M316.2,199.7
				c-5.8,27.3-20,54.4-42.4,71.4c-4.8,0.9-9.7,1.5-14.5,1.8c26.6-13.1,44.1-39.9,53.3-67.5c0.7-2,1.3-4.1,1.8-6.1
				c0.1-0.5,0.6-0.8,1.1-0.7l0,0C315.9,198.7,316.3,199.2,316.2,199.7z"/>
		</g>
	</g>
	<g class="st1">
		<g>
			
				<image style="overflow:visible;opacity:0.4;" width="72" height="100" xlink:href="6243374.png"  transform="matrix(0.48 0 0 0.48 157.4674 132.9874)">
			</image>
			<g>
				
					<linearGradient id="SVGID_00000047775130673574100040000013004982598592349603_" gradientUnits="userSpaceOnUse" x1="166.4215" y1="138.249" x2="174.7997" y2="165.0286">
					<stop  offset="0" style="stop-color:#8DB8EF"/>
					<stop  offset="0.73" style="stop-color:#5479BD"/>
					<stop  offset="1" style="stop-color:#624F8F"/>
				</linearGradient>
				<path style="fill:url(#SVGID_00000047775130673574100040000013004982598592349603_);" d="M178,149.3c-4.4-1.4-8.5-8-10.4-11.1
					c-0.1-0.1-0.2-0.2-0.4-0.2l3.3,11.4c0.2,0.9,0.9,1.5,1.8,1.7c1.1,0.3,2.1,1.2,2.4,2.4c0.3,1.6-0.6,3.2-2.1,3.7
					c-1.7,0.6-3.6-0.4-4.1-2.2c-0.3-1.1,0-2.3,0.8-3.1c0.6-0.7,0.9-1.6,0.6-2.4l-3.3-11.4c-0.2,0.1-0.3,0.2-0.3,0.4
					c0,3.7,0,11.4-3,14.9c-0.6,0.7-0.7,1.8,0,2.6c2.1,2.4,5.6,5.7,7.5,12.3l4.5-1.3l4.5-1.3c-1.9-6.5-0.6-11.2-0.1-14.4
					C179.5,150.5,178.9,149.6,178,149.3z"/>
			</g>
		</g>
		<g class="st14">
			<path class="st4" d="M178.7,150c0.2,0,0.3,0.1,0.4,0.2c-0.2-0.4-0.6-0.8-1.1-0.9c-1.4-0.4-2.8-1.4-4.1-2.7
				C175.4,148.2,177,149.5,178.7,150z"/>
			<path class="st4" d="M173.1,158.1c1.5-0.5,2.5-2.2,2.1-3.7c-0.2-0.8-0.6-1.5-1.3-1.9c0.3,0.3,0.4,0.8,0.5,1.2
				c0.3,1.6-0.6,3.2-2.1,3.7c-1,0.3-2.1,0.1-2.9-0.5C170.3,158.1,171.8,158.6,173.1,158.1z"/>
			<path class="st4" d="M171.5,150.9c-0.1-0.2-0.3-0.4-0.3-0.7l-3.3-11.4c0,0,0,0,0.1,0c-0.1-0.2-0.2-0.4-0.3-0.6
				c-0.1-0.1-0.2-0.2-0.4-0.2l3.3,11.4C170.6,150.1,171,150.6,171.5,150.9z"/>
			<path class="st4" d="M163.8,156.8c-0.6-0.7-0.6-1.8,0-2.6c2.9-3.4,3-10.7,3-14.5l-0.4-1.5c-0.2,0.1-0.3,0.2-0.3,0.4
				c0,3.7,0,11.4-3,14.9c-0.6,0.7-0.7,1.8,0,2.6c2.1,2.4,5.6,5.7,7.5,12.3l0.5-0.1C169.1,162.2,165.8,159.1,163.8,156.8z"/>
		</g>
		
			<linearGradient id="SVGID_00000059269744633408028020000001285290180415166118_" gradientUnits="userSpaceOnUse" x1="174.296" y1="165.4735" x2="173.0165" y2="160.4881">
			<stop  offset="0" style="stop-color:#5479BD"/>
			<stop  offset="1" style="stop-color:#624F8F;stop-opacity:0"/>
		</linearGradient>
		<path style="opacity:0.5;fill:url(#SVGID_00000059269744633408028020000001285290180415166118_);" d="M178.6,156.8
			c-2.4,2.1-5.5,3.5-8.9,3.5c-1.2,0-2.3-0.2-3.4-0.5c1.6,2.1,3.2,4.8,4.3,8.5l8.9-2.5C178.5,162.3,178.4,159.3,178.6,156.8z"/>
		<g>
			
				<image style="overflow:visible;opacity:0.4;" width="62" height="48" xlink:href="6243373.png"  transform="matrix(0.48 0 0 0.48 164.1874 159.3874)">
			</image>
			<g>
				
					<linearGradient id="SVGID_00000160900290084674128080000000836632556912791984_" gradientUnits="userSpaceOnUse" x1="174.5816" y1="165.5722" x2="175.4806" y2="168.3475">
					<stop  offset="0" style="stop-color:#8DB8EF"/>
					<stop  offset="0.3904" style="stop-color:#5479BD"/>
					<stop  offset="1" style="stop-color:#624F8F"/>
				</linearGradient>
				<path style="fill:url(#SVGID_00000160900290084674128080000000836632556912791984_);" d="M179.9,167.3l-8.9,2.5
					c-0.8,0.2-1.7-0.2-2-1.1l0,0c-0.2-0.8,0.2-1.7,1.1-2l8.9-2.5c0.8-0.2,1.7,0.2,2,1.1l0,0C181.3,166.2,180.8,167.1,179.9,167.3z"
					/>
			</g>
		</g>
		<path class="st17" d="M169.6,169.1c-0.2-0.8,0.2-1.7,1.1-2l8.9-2.5c0.3-0.1,0.7-0.1,1,0c-0.4-0.3-0.9-0.5-1.5-0.3l-8.9,2.5
			c-0.8,0.2-1.3,1.1-1.1,2c0.1,0.5,0.5,0.9,1,1C169.9,169.6,169.7,169.4,169.6,169.1z"/>
	</g>
</g>
<g class="st0">
	
		<image style="display:inline;overflow:visible;opacity:0.4;" width="510" height="134" xlink:href="624337D.png"  transform="matrix(0.48 0 0 0.48 131.5563 289.9563)">
	</image>
	<g class="st1">
		<text transform="matrix(1 0 0 1 136.4009 330.6152)" class="st18 st19 st20">QUILL PEN</text>
		<g>
			
				<linearGradient id="SVGID_00000126319130718908982520000001593481377699377289_" gradientUnits="userSpaceOnUse" x1="247.0088" y1="301.3174" x2="247.0088" y2="334.8496">
				<stop  offset="0" style="stop-color:#FFFFFF"/>
				<stop  offset="1" style="stop-color:#CCCCCC"/>
			</linearGradient>
			<path style="fill:url(#SVGID_00000126319130718908982520000001593481377699377289_);" d="M163.4,334.8c-3.9-1-7.7-2.2-11-3.3
				c-0.6-0.2-1.2-0.4-1.8-0.4c-6.8-0.3-12.7-5.3-12.7-14.6c0-9.2,5.6-15.2,13.4-15.2c7.8,0,12.9,6.1,12.9,14.6
				c0,7.4-3.4,12.1-8.2,13.8v0.2c2.9,0.7,6,1.4,8.4,1.8L163.4,334.8z M160.4,316.1c0-5.8-3-11.7-9.1-11.7c-6.3,0-9.4,5.8-9.3,12.1
				c0,6.1,3.3,11.6,9.2,11.6C157,328,160.4,322.7,160.4,316.1z"/>
			
				<linearGradient id="SVGID_00000054267583281086262700000009913466405344416160_" gradientUnits="userSpaceOnUse" x1="247.0088" y1="301.3174" x2="247.0088" y2="334.8496">
				<stop  offset="0" style="stop-color:#FFFFFF"/>
				<stop  offset="1" style="stop-color:#CCCCCC"/>
			</linearGradient>
			<path style="fill:url(#SVGID_00000054267583281086262700000009913466405344416160_);" d="M177.1,301.8v17.1
				c0,6.5,2.9,9.2,6.7,9.2c4.3,0,7-2.8,7-9.2v-17.1h3.8v16.8c0,8.9-4.7,12.5-10.9,12.5c-5.9,0-10.4-3.4-10.4-12.3v-17H177.1z"/>
			
				<linearGradient id="SVGID_00000060025290954815868480000013300900832330673817_" gradientUnits="userSpaceOnUse" x1="247.0088" y1="301.3174" x2="247.0088" y2="334.8496">
				<stop  offset="0" style="stop-color:#FFFFFF"/>
				<stop  offset="1" style="stop-color:#CCCCCC"/>
			</linearGradient>
			<path style="fill:url(#SVGID_00000060025290954815868480000013300900832330673817_);" d="M209.1,301.8v28.8h-3.7v-28.8H209.1z"/>
			
				<linearGradient id="SVGID_00000137096678158281427930000007864215236711622331_" gradientUnits="userSpaceOnUse" x1="247.0088" y1="301.3174" x2="247.0088" y2="334.8496">
				<stop  offset="0" style="stop-color:#FFFFFF"/>
				<stop  offset="1" style="stop-color:#CCCCCC"/>
			</linearGradient>
			<path style="fill:url(#SVGID_00000137096678158281427930000007864215236711622331_);" d="M219.8,301.8h3.7v25.7h12.3v3.1h-16
				V301.8z"/>
			
				<linearGradient id="SVGID_00000116210996841987106200000009245872654958236857_" gradientUnits="userSpaceOnUse" x1="247.0088" y1="301.3174" x2="247.0088" y2="334.8496">
				<stop  offset="0" style="stop-color:#FFFFFF"/>
				<stop  offset="1" style="stop-color:#CCCCCC"/>
			</linearGradient>
			<path style="fill:url(#SVGID_00000116210996841987106200000009245872654958236857_);" d="M244.3,301.8h3.7v25.7h12.3v3.1h-16
				V301.8z"/>
			
				<linearGradient id="SVGID_00000074411926610914254260000016131245274029925035_" gradientUnits="userSpaceOnUse" x1="247.0088" y1="301.3174" x2="247.0088" y2="334.8496">
				<stop  offset="0" style="stop-color:#FFFFFF"/>
				<stop  offset="1" style="stop-color:#CCCCCC"/>
			</linearGradient>
			<path style="fill:url(#SVGID_00000074411926610914254260000016131245274029925035_);" d="M282.1,302.1c1.8-0.3,4.1-0.6,7.1-0.6
				c3.7,0,6.4,0.9,8.1,2.4c1.6,1.4,2.5,3.5,2.5,6c0,2.6-0.8,4.7-2.2,6.2c-2,2.1-5.2,3.2-8.8,3.2c-1.1,0-2.1,0-3-0.3v11.5h-3.7V302.1
				z M285.8,316c0.8,0.2,1.8,0.3,3.1,0.3c4.5,0,7.2-2.2,7.2-6.2c0-3.8-2.7-5.6-6.8-5.6c-1.6,0-2.9,0.1-3.5,0.3V316z"/>
			
				<linearGradient id="SVGID_00000173850826528970516390000001974360506259998645_" gradientUnits="userSpaceOnUse" x1="247.0088" y1="301.3174" x2="247.0088" y2="334.8496">
				<stop  offset="0" style="stop-color:#FFFFFF"/>
				<stop  offset="1" style="stop-color:#CCCCCC"/>
			</linearGradient>
			<path style="fill:url(#SVGID_00000173850826528970516390000001974360506259998645_);" d="M324,317.1h-11.2v10.4h12.5v3.1h-16.2
				v-28.8h15.6v3.1h-11.8v9.1H324V317.1z"/>
			
				<linearGradient id="SVGID_00000124841462414535047410000014912662065951750538_" gradientUnits="userSpaceOnUse" x1="247.0088" y1="301.3174" x2="247.0088" y2="334.8496">
				<stop  offset="0" style="stop-color:#FFFFFF"/>
				<stop  offset="1" style="stop-color:#CCCCCC"/>
			</linearGradient>
			<path style="fill:url(#SVGID_00000124841462414535047410000014912662065951750538_);" d="M334.4,330.6v-28.8h4.1l9.2,14.6
				c2.1,3.4,3.8,6.4,5.2,9.4l0.1,0c-0.3-3.8-0.4-7.4-0.4-11.8v-12.1h3.5v28.8h-3.8l-9.2-14.6c-2-3.2-3.9-6.5-5.4-9.6l-0.1,0
				c0.2,3.6,0.3,7.1,0.3,11.9v12.3H334.4z"/>
		</g>
	</g>
</g>
<g class="st0">
	
		<image style="display:inline;overflow:visible;opacity:0.4;" width="258" height="73" xlink:href="624337E.png"  transform="matrix(0.48 0 0 0.48 192.0363 345.6363)">
	</image>
	<g class="st1">
		<text transform="matrix(1 0 0 1 196.8716 364.0713)"><tspan x="0" y="0" class="st29 st30 st31 st20">LOGOTYP</tspan><tspan x="98.6" y="0" class="st29 st30 st31">E</tspan></text>
	</g>
</g>
<path class="st32" d="M414.7,300.4c4.3-0.4,10.4-1.9,16.1-3.9c2.1-0.2,4-0.8,5.8-1.6c1.6-0.4,3.3-1,4.9-1.7
	c13-4.6,7.2-20.8,6.8-23.5l-1.1-5.8l0.3,3.3c0.3,2.6,0.7,6.4,0.5,10.1l-0.1,1.1c0,0.3-0.1,0.5-0.1,0.7c-0.2,1.1-0.4,2.1-0.7,3.1
	c-0.2,0.6-0.5,1.2-0.8,1.7c0.6-1.6,0.8-3.1,0.6-4.1l0.3-5.9l-0.5,3.3c0,3.9-1,6.7-2.8,8.7c1.1-5-1.1-9.4-2.4-11.3
	c-1.2-2.6-3.3-4.4-5-6.5l2.9,3.6c5.9,8,5.5,12.7,2,15.8c-1.3,0.5-2.8,0.8-4.4,1l0,0l1.6-0.7l-1.5,0.5l1.5-2.1l-1.6,2.2l-0.1,0
	c-0.2,0.1-0.3,0-0.5,0c-0.5,0-1.2,0-1.9,0.1c-5.7-0.5-14.9-5.2-19.3-0.6c0.9-7.6,17.2-12.3,13.5-21.8c0,0,0,0.1,0,0.1
	c0,0,0,0.1,0,0.1c0.1,0.4,0,0.9-0.2,1.5c0.1-0.5,0.3-0.9,0.2-1.5c-0.8,2.6-13.3,7.7-15.9,13.5c0.3-3.4-1.4-7.9,1.3-9.2
	c3-0.7,11-2.6,8.7-7.8c-1.3,2-1.7,3.9-7.9,5.1l-0.2-0.8c3-1.1,5.6-2.2,5.7-5.1c-2.8,2.3-16,5-14.1,12.5c0,0.3-0.1,0.7,0,1.1
	l-0.5,2.3l-0.9-0.2c-1.4-2-4.5-2.3,0.1-8.9c-1.4-2.8-2-4.8-2.2-6.5c0.1-0.3,0.2-0.6,0.3-0.9c1.5-2.3,3.5-5.2,4.6-7.9
	c1.5-3.5,1.3-6.7-3.3-7.5c1.6,0.4,2,2.1,1.7,4.3c-0.6,0.7-1.3,1.8-2,3.1c-2.9,3.2-8.2,7.8-9.3,11.9c-1.2-1.6-2.3-5.2,0.9-9.3
	c-9-3-3.3-10.9-1-12.9l-0.3-3.8c0-0.2,0.1-0.5,0.1-0.7l-1.8-3.2l0.9,1.9c1.8,3.1-3.9,9.4-6.7,14.8c-1.4-2.4-2.4-5.6-0.8-10.9
	c0.8-2.2,1-3.8,2.3-4.3c2.4-0.4,4.9-4.3,3.9-6.8c-1.2-4.8-3.8-7.1-4.8-9l-3.1-4.5l1.5,2.7c2.8,6.3,8.5,13.2-3,17.9
	c-1.7,2.1-2.4,4.7-2.5,7.3c-0.7-1.4-1.3-3-1.8-4.6c0,0,0-0.1,0-0.2c-0.8-2.9-1.4-5.9-2.1-8.9c0-0.1,0-0.2,0-0.4
	c0.6-0.7,1.4-1.3,2.7-1.8c8.2-10.6-1.2-20.5-1.8-23.5l-2-5l0.8,2.9c1.4,5.5,5.8,14.9,1.2,20.7c0.1,0.2-0.7,0.6-1.6,1.2
	c-0.6-5-0.9-9.9-1.4-14.1c-1.7-16.9-6.6-33.2-6.7-50.4c-0.1-11.4,0.6-24.6,11.6-30c10.3-5,21.6,0.6,23.3,12.8
	c1.7,11.8-9.5,15.6-13.9,24.1c-5.1,9.8-1.6,21.1-0.8,31.6c0.9,11.5,3.7,21.8,15.2,25c-2.3-1.1-3.8-2.8-4.6-4.9
	c-2.2-5.4-0.3-13.4,1.3-21.5c0.2,4.6,0.6,10.1,1.6,15.1c-0.1,2.1,0,4.3,0.3,6.6c1.5,7.6,8.8,10.3,12.8,11.4c4.2,1.7,4.6,6.7,5,9.1
	c0.1,2.4,1,4.6,2.1,6.7l-1.4-3.8c-0.6-3.7,0.5-9-3.4-13c-2.8-2.3-5.7-3.7-7.8-5.7c0.5,0.2,1,0.4,1.6,0.5c-0.6-0.4-1.3-0.6-2-0.9
	c-0.9-0.9-1.6-1.9-2-3.3c-1.1-3.8-0.7-8.1,0-12.3c1.3-4.9,3.3-10.3,3.8-16.1c0,0.2,0,0.4,0,0.5l0,2.1l0.2-1.2
	c0.2-0.7,0.4-1.6,0.6-2.6c0.4,6.1,4,11.7,6,14.9c-2.7-10.1-0.1-28.2-9.6-33.6c-1.2-4.5,1.4-10.8,1.6-15.1c0.8-1.2,1.4-2.5,1.9-3.7
	c0.5-0.6,0.9-1.3,0.8-2.3c0.8-3.2,0.7-6.4-0.1-9.6c0.1-5.9-5.1-12.4-12.7-16.7c-10.1-5.7-17.8-6.7-23.5-4.6
	c-4.2-0.2-9.1,1.3-13.3,7.3c-7.2,11.8-7.3,28.8-6.3,45.2c1,17.5,4.1,35.4,7.9,50.3c0.2,11.9,1.9,23.4,8.7,33.5
	c5.3,8,14.2,16.1,20.1,25.1c1.7,4.1,3.2,8.4,4.4,13c0.7,3,1.2,6.5,0.9,9.6c-0.3,1.4-0.8,2.7-1.4,4.1c-0.2,0.4-0.5,0.8-0.8,1.1
	c-0.1,0-0.1,0.1-0.2,0.1c-1.4,0.7-2.7,1.4-4,1.8c-3.1,0.5-6.7-0.3-9.9-1.2c-16.9-5.4-31.8-21.3-45.9-23.5c0,0,0,0,0,0
	c-1.4-5.8-3.8-11.6-6.8-15c-0.7-1.3-1.4-2.5-2.2-3.7c-1-2-2.1-3.6-3.4-4.9c-0.4-0.5-0.8-1.1-1.2-1.6c-1.3-2-2.7-3.6-4.3-5
	c-7.9-8.8-17.6-17.3-27.2-25c-14.9-9.7-15.2-25.4-12.1-38.8c0.4,1.6,1,3,2.6,4.5c2.1,0.6,3.3,1.7,4,3.1c0.2,0.4,0.3,0.8,0.5,1.2
	c0,0.1,0.1,0.1,0.1,0.2c1,3.4,0,7.7,0.4,9.8c-0.2,1.7,0.3,3.1,1,4.3c0.4-1.1,0.6-2.2,0.7-3.3c0.2,2.1,1.1,4.1,2.7,5.8
	c-0.9-1.6-2.1-3.3-2.5-4.9c4.4-11.2-4-24.8,8.8-36c-0.2-6.6-0.6-11.9-0.6-16.4l3.7-0.1c0,2.5,0.5,5.1,1.8,8c3.5,5.7,2.2,8.8-2,14.1
	c-2.4,5.4,0.9,8.8,2.9,10.8c0.1,0.5,0,1.1,0.1,1.6l1.5,0.6c0.9,1.6,0.1,3.4-0.3,5.3l1.2-3.6c0-0.5-0.2-1-0.4-1.5l2.7,1.1l-2.5-1.3
	c-0.3-0.3-0.5-0.7-0.7-1.1c-0.2-0.3-0.3-0.5-0.5-0.8c-0.2-0.6-0.4-1.3-0.4-1.9c0-3.2,2.7-6.6,5.8-10.2c6.2-1.4,17.1-6.8,19.1-13.4
	c1.4,1.9,2.7,3.6,3.3,5.1c3,6.1-1.9,10.8-4.3,12.8c-2.1,1.9-4.5,4.6-4.5,8.1c0.2-1.9,0.8-3.6,1.9-5c2.8-3.7,10.5-6.3,9.3-14.4
	c-0.7-7.5-7.5-12.4-6.6-18.4c0.6-3.6,1.8-7.3,3.4-10.7c2.5-3.8,5.7-7.5,8.8-11.6c0.2-0.2,0.4-0.3,0.7-0.4
	c-1.8,6.1-3.9,12.9-2.4,16.4c0,0,2.5,2.9,2.5,3c0.1,0.6,0.3,1.2,0.6,1.8c-2.6-10.7,10.6-18.8,13.4-32.1c0.6-12.9-2.7-24.1-1.2-32.5
	c0.4,1.3,0.7,2.4,1.1,3.9c8.9,16.6,24.5,1.5,27.1,0.7c2.1-0.8,4.2-0.5,6.4-0.1l-3.7-0.8c-3.3-0.1-7.8,2.6-12.1,4.2
	c-6.3-1.5-7.8-9.6-9.2-18.2c1.4,1.5,3.4,2.8,5.7,3.5c6.9,1.9,12.4-1.5,16.2-2.9c-3.8-0.5-7.9-1-11.6-1.8l0.4-2.2
	c0.9,0.3,1.8,0.3,2.9,0.2c-7.6-0.4-10.4-11-14.2-19.1c0.1-0.1,0.2-0.3,0.4-0.4c6-2.4,11.6,11.1,20.2,4.1c0.3-11,5.6-11.8,11.2-8.8
	c2-2-9.4-6.2-12.1,0.2l-0.2-0.1l2.2-4.1l-1.5,2.7c-5.4,7.3-13.5-2.5-21.7-7.9c5.9-0.1,12.5-3.1,8.6-8.6c0.5,1.2-0.1,2.4-1.3,3.6
	l-0.2,0.1l-0.6,0.2c-5.9,2-10.5-5.7-17.3-9.8c1.6-0.9,3.1-2.2,4.4-3.9c0.2-0.3,0.4-0.6,0.6-0.9c0.6,0,1.1-0.1,1.7-0.2
	c-0.5,0.1-1.1,0.1-1.6,0.1c0.9-1.2,1.5-2.5,1.8-3.8c1.5-4.2,1.5-8.7-1.2-11.3c-0.2-2.5-1.3-4.6-4.2-5.4c1.4,1.1,1.9,4.9,1.5,8.7
	l-0.8,1.7c-0.2,0.3-0.7,0.5-1,0.8c-2.7,1.8-5.7,1.9-9,1.3c-1.3-1.7-2.7-3.4-4.4-4.9c-5-5-12.8-7.9-20.3-7.3
	c-11.4,0-20.7,8.8-24,17.5c-12.2-0.2-26.7,0.2-40.4,2.7c-11.8,2.2-26.6-6.8-37.4,0.9c-4.3,3.1-9.3,11.4-9.1,16.9
	c0.1,3.2,4.8,1.1,4.9,3.5c0,0.1-0.3,1.7-0.6,3.9c-1.1,3.1-1.8,7.4-1.8,11.2c-0.3,1.7-0.5,2.8-0.5,2.8c0.2-0.3,0.3-0.6,0.5-0.9
	c0.1,2.7,0.6,4.9,1.4,6l0.8,3.1l-0.3-1.8c-0.2-1-0.4-2-0.4-3c0.1,0.3,0.4,0.5,0.5,0.8c0,0.7,0.1,1.3,0.3,1.9l-0.2,3.1l0.3-1.8
	c0-1,0.2-2,0.5-3c0.8-0.6,1.2-1.7,1.3-3.2c0.3-0.5,0.6-1.1,1-1.6c0.2-0.2,0.4-0.5,0.5-0.8c1-1.4,2.2-2.8,3.5-4c0.9,1,1.9,1.6,3,2
	c0.7,0.6,1.6,1.1,2.4,1.5c1.4,1.6,3.2,2.9,5.1,3.9c4.8,4,11,7.4,16.1,7c1.4,0.5,2.8,0.7,4.1,0.6c0.5,0.4,0.9,0.9,1.4,1.3
	c0.1,0.6,0.3,1.2,0.5,1.7c0.5,2.5,1.7,4.6,3.7,5.2c0.1,0.5,0.3,0.9,0.4,1.4c-1.5,1.8-3.4,3-5.3,4c-0.4-0.1-0.7-0.2-1-0.2
	c-2.8-7.6-8.4-7.3-14.3-5.6c-0.6-0.3-1.2-0.6-1.9-0.8c-6.1-0.7-10.1,1.5-13.4,3.5c-0.6-2.8-2-8.9-1.5-9.6c-0.3,0.3-0.5,0.7-0.7,1
	c0.4-1.1,0.6-2.1,0.6-2.7l0.6-2l-0.5,1.1c-0.2,0.6-0.5,1.1-0.8,1.6c0-0.4,0.1-0.8,0.1-1.1l0.2-1.6l-0.3,0.9
	c-0.4,1.9-2.2,3.9-3.5,6.1c-0.5,0.6-1.1,1.1-1.6,1.7c-0.9,0.9-1.8,1.7-2.5,2.7c-1.1-4.5-3.6-10.7-3.6-12.2
	c0.1,7.7-7.7,16.4-4.3,22.9c4.9,9.4,21-1.7,23.3,6.8c0.2,0.7,0.2,1.4,0.1,2.1c-6.4-0.9-14.7,1-20.4,9c-2.6,3.5-5.8,4.9-9.1,5
	c-0.9-0.2-1.8-0.3-2.6-0.1c-8.7-1-18.1-8.1-22.8-4.6c-3.1,1.3-5.2,3.9-7,6.6c1.2-1.4,2.2-2.9,3.6-4c6.2-6.2,12.8,0.1,20.7,3.7
	c-1.5-0.3-2.8-0.3-3.9,0.1c-1.9,0.5-3.2,1.9-4.1,3.6c0.7-0.8,1.2-1.8,2-2.3c2.4-1.1,4.7-0.7,7,0.4c-0.2,0.2-0.5,0.5-0.7,0.7l0.8-0.7
	c2.2,1,4.3,2.6,6.7,4.1c-2.9,0.6-6,1.1-9.3,0.7c-2.1-0.4-4.1-1.3-6.2-1.8c-6.9,1.5-3.1,3.6-5.8,4.5c-3,1.7-6.8,0.3-8.5-0.6
	c-1.6-0.9-3.1-1.9-4.6-3l2.4,2.1c1.5,1.1,3.2,2.4,5.3,3.3l0.8,1.6c0.1,0.3,0.2,0.6,0.4,0.9c-0.2,0-0.5-0.1-0.8-0.1
	c-1.6,0.3-2.4,1.4-3,1.8c-1.4,1.9-5.5-2.1-5.8-3.4c-0.9-1.4-1.5-3.2-2.2-4.8l0.9,2.9c1.1,2.6,2.1,6.7,6.7,7.8c1.9-0.6,4.8-1.9,3.6-1
	c0.5,0.9,1.9,3.4,3.7,4.5c-2.7,1.4-5.3,2.3-8,2.5c-1.9-2.8-4.4-5.7-7.7-7.8c-1.8-1.3-3.6-2.6-5.4-3.7c-4.4-3.5-9.3-6.6-13.8-9.5
	c-7.2-5-13.5-10.6-19-15.5c-4.4-7.4-7.3-15.1-7.8-22c-0.3-4.1-2.9-6.5-5.7-7.6c-0.1-0.1-0.1-0.2-0.2-0.3
	c-2.4-4.7,14.1-22.5,2.8-23.9c-0.2-0.3-0.4-0.6-0.6-0.9c-0.3-1.7-0.5-3.6-1-5.1c1-4.2,1.6-9.2-5.2-11.8c-3.2,0-5.2,1-6.7,2.5
	c-4.7-5.7-18.8-5.9-20.1,2.4c0.4-0.5,1.3-1,2.6-1.5c-0.6,0.3-1.3,0.8-1.8,1.5c2,0.5,10.9,1.1,13.7,5c-3.4-0.5-6.5,1-9,3.4
	c-5.3-4.1-20.9,0.1-18.3,9.3c2.8,0.6,9.5-3.2,13.1-1c-0.2,0.7-0.3,1.3-0.4,1.8c-1.6,0.4-3.1,1.5-4.1,3.4c-4.6-3.2-20.8-4.9-20,5.5
	l0.3,0.2c-0.1,0.1-0.2,0.3-0.3,0.5c1.9,0.3,10.6-1.4,14,1.7c-1.1,3.2,2.8,10.5,8.6,10c3,0.5,3.4,5.5,4.3,9.4
	c-2.9-1.9-6.4-3.5-11.4-1.7c-5.6,5.2-3.9,10-3.1,13.3c-4.7,0.2-10.5-4.8-8.5-7.6c-1.5,0.6-2.1,1.5-2.2,2.3
	c-4.4,4.3,8.2,18.2,13.7,12.7l1.4-0.2c1.9,4.6,8.8,9.1,12.9,3.4c1.9-2.9,3.7-3.7,5.5-3.4c-2.5,5.5,0.2,20-4.2,22l-2.5,1.9L80,129
	c1.4-0.5,2.7-1.3,3.7-2.5c-1.3,1.5-2.3,3-2.8,4.3c1.1-2.7,5.1-4.6,8.3-6.8c-1.3,1.3-2.2,2.8-2.5,4c1.6-2.3,7.3-1.5,10.5-2.4
	c-0.2,1.3-0.8,2.2-2.2,2.2l-1.3,0.7l0.8-0.2c3.8,1,5.8-4.5,5.2-8.2c0.3,0.4,0.6,0.8,0.9,1.1c0.6,4.2,0,9.4-6.2,9.6l-2.3,0.9l1.4-0.4
	c1-0.6,2.4-0.7,3.9-0.8c-3.7,2.3-5.3,6.6-5.7,9.2c1.2-2.6,5.3-4.2,8.8-6c-2.7,2.4-5,5.4-4.5,8.9c0.3-3,4.9-3.7,8.2-5.5
	c0.1,0.3,0.2,0.6,0.3,0.9l0.3,1.1l0-0.6c0-0.4,0-1.1,0-1.7c0.5-0.3,0.9-0.6,1.3-0.9c0.1,0.5,0.1,1.1,0.2,1.6c-0.5,0.4-1,1-1.5,1.6
	c-2.1,3-3.6,8.1-3,10.8l-0.2,1.8l0.3-0.9c0.1-2.5,1.5-3.7,3.1-4.9c-0.6,1.5-0.7,3-0.4,4.3c-0.2-2.8,3.2-5.8,5.2-8.9
	c1.2-0.5,1.6-2,1.5-3.9c0.3,0.4,0.5,0.7,0.8,1c-0.5,2.9-2.6,6.4-4.9,9.3l-0.9,1.7l0.6-0.9c1.1-1.4,4.9-4.1,6.7-7c0,0.8,0,1.7,0,2.5
	c-0.9,1.8-1.6,3.7-1.4,5.6c-2.7,5-5.5,10.4-4.4,13.8l1.6,3.2l-0.8-1.9c-3-6.3,6.4-12.7,8.8-19.4c0.1,0.2,0.1,0.3,0.1,0.4
	c-1.9,6.7-7.1,17.5-7.1,22.6l0.5,3.8l-0.1-2.2c-0.9-4.3,2.9-9.6,5.9-14.9c-1.8,5.4-3.8,11.1-2.8,14.7c0,0,0,0.1,0,0.1
	c0,0.1,0,0.2,0,0.2c0,0.2,0,0.3,0.1,0.5l0.7-0.1l0.5-1.1c0.2-1.6,2.1-3.4,3.9-5.4c-0.7,2.7-1.4,5.3-1.8,7.1l-0.3,2.6l0.3-1.4
	c0.2-2.6,2.8-6.3,4.5-10c0,0.3,0.1,0.6,0.1,0.9c-1.5,3.8-2.8,9.9-4.5,11.6l-1.1,1.8l0.7-0.9c1.2-1.2,2.7-3,4.1-5.1
	c-0.9,1.9-1.7,4.1-2.3,6.5c0.2,7.6,3.1,14.1,3.4,18.7c-0.6,3.6-1.1,6.8-1.3,8.7l0,0.2l1.5,4.3l-0.8-2.5c-0.2-5.6,2.7-13.5,4.9-21
	c0,0.3,0.1,0.5,0.1,0.7c0,0.6,0.1,1.2,0.2,1.8c0.1,0.2,0.1,0.4,0.1,0.7c-1.3,4.2-1.9,8.3-0.6,10.8c-1-3.7,1.1-7.8,3.2-11.8
	c0.3-0.3,0.6-0.8,0.9-1.5c0.2-0.1,0.5-0.2,0.7-0.5c0,0.1,0,0.2,0,0.3c-1.5,4.3-2.5,9.3-0.7,11.5c-1.2-3.6,1.4-7.7,3.3-11.7l-0.2,0.5
	l0.2-0.3c-1.1,5-1.2,10.9,1.6,12.6c-2.1-3.3-1-7.5,0.3-11.5c0.1-0.1,0.2-0.2,0.3-0.3l-0.2,1.2l0.3-0.6c0.2-0.6,0.4-0.9,0.7-1.3
	c0,0.2,0,0.3,0,0.5c-0.1,0.9-0.1,1.6,0.1,2.1c0,0-0.2,0.9-0.2,0.9l0.1-0.2l-0.2,1.2l0.3-0.9c0-0.2,0.1-0.3,0.1-0.4
	c0.1,0.4,0.2,0.7,0.3,0.8c-0.8,3.5-0.5,7.2-1.4,9.3c-0.1-0.2-0.3-0.4-0.5-0.6l0.4,0.8c-0.7,1.4-2,2-4.9,1.2c-0.1,0.1,0,0.2-0.1,0.3
	c-1.4-0.1-2.5,0.4-3.5,1.3l-0.2-0.7c-0.1-0.2-0.2-0.4-0.3-0.5l0.3,1.3c-0.1,0.1-0.2,0.2-0.3,0.3c-0.1,0.1-0.2,0.2-0.3,0.3
	c-0.1,0.2-0.2,0.3-0.4,0.5c-0.1,0.2-0.3,0.4-0.4,0.6c-2.2,3.4-3.8,8.5-8.1,9.6c-8.9,2.9-10.4-9.9-14.9-16.9
	c-4.9-7.3-11.3-14.9-20-15.2c-3.5,1.1-5,3.4-5.7,6.1c-6.9-2.7-16.2,7.9-14.4,15.1c-0.1,0.7-0.1,1.4,0.1,2.2c0.1-0.2,0.2-0.5,0.4-0.8
	c0.1,0.3,0.1,0.6,0.3,0.8c0-0.4,0.1-0.9,0.3-1.6c2.3-2.7,8.1-6.4,12.3-6.5c-0.1,0.3-0.1,0.6-0.1,0.8c-2.4,1.8-3.6,4.4-3.9,7.1
	c-6.5,0.9-12.8,10.8-10.5,17.3c-1,3.8,0.2,8.1,2.9,9.1c2.2-2.4,0.7-5.4,2.2-9.2c0.2-0.8,0.6-1.6,1-2.3c2.9-2.7,6.9-4,9.8-1.9
	c-6.8,4.7-9.1,12.7-7.7,20.5c-1.6,3.8-1.6,7.8,1.9,10.4c1.3-1.8,2.1-7.4,3.6-12.4c0.6-0.1,1.3-0.1,2.1-0.1c2.3,1.8,5.7,3.3,9.3,3.8
	c3.6,1.3,7.4,0.3,10.2-1.4c-1.3,6.5-3.1,14.8,2.9,15.5c-3.5-0.4-7.9,0.9-11.7,0.4c-1.1-0.1-3-5.2-1.3-0.4c-0.1,0-0.1-0.1-0.3-0.1
	c-0.2,0-0.2,0-0.4,0c0-1-0.1-2-1.1-2.3c0,0-0.1-0.1-0.1-0.1c0,0-0.1,0.1-0.1,0.1c-0.2,0-0.4-0.2-0.7-0.2c-1.1,0.8-0.8,1.6-0.1,2.2
	c-0.1,6.1,17.2,13.9,21.3,6.9c3.8,3.4,13.1,0.3,17-7.3c2.7-9,2.7-13.1,9.1-12.1l0.6,0.1c-0.4,3.1,0.1,5.9,2.1,7.6l2.6,1.5l-1.3-1.1
	c-4-3.2-0.3-7.3,2.3-11.8c1.3,4.5,3.2,9.3,6.5,11.1l2.4,1.8l-1.3-1.2l1.5-1l0.2,0.4l-0.8-1.9c-1.7-3.2,2.8-10.7,4-16.9
	c1.2,1.8,2.6,3.7,4,5.4c0.7,3.8-2,0.8-6.3,10.8c3.1,9.5,9.9,8.4,7.1,13.2l-2,3.1l1.4-1.6c5.3-2.5-0.3-11.8-2.7-13.3
	c-0.9-0.5,5.8-5.1,5.7-8.9c1.3,1.3,2.6,2.4,3.8,3l0.8,0.5l0.2,0.1c0.1,0.9,0.3,1.8,0.5,2.6c-9.5,5.8-0.2,15.4,1.7,17.4
	c3.6,4.3-2.8,6.5-4.8,7.1c-2.3,0.5-4.1,2.4-5.9,4.2l3.2-2.7c2.9-1.8,10.1-0.7,10.1-8c-1.7-5.5-6.9-10-4.1-12.8
	c0.3-0.5,1.2-0.6,2.4-0.9c0.2,0.2,0.4,0.4,0.6,0.5l3,2.5l-1.5-1.6c-0.7-0.4-1.3-0.9-1.8-1.4c1-0.2,2.1-0.4,3.5-0.9
	c1.5-0.5,2.5-1.6,3.2-2.9c0.1,0.2,0.2,0.4,0.3,0.6c0.5,1,0.8,2,0.9,3.1c-2.2,0.7-4.6,2.7-5,6.1c-1,2.7-1,5.6-0.4,7.7
	c-0.1-1.2,0.2-2.3,1-3.4c0.3,0.9,0.7,1.7,1.1,2.4c0.4,3.3,1.6,6.1,3.8,6.4l1,1.6l0.1,0.1c0,0-0.1,0.1-0.1,0.1c0-0.1,0-0.1,0-0.2
	l-0.3,0.6c-0.8,0.6-2.2,0.9-3.9,1l-3.6-1.8l1.9,1.3c4.4,7.3,14-5.5,5.7-9.7c-1.6-1,3-3.4,5.4-6.6c-0.5,3.4-1.1,7.1-0.8,10.1
	c-0.1,1.8,0.4,3.3,1.6,4.2c0.1,0.1,0.1,0.1,0.2,0.1c0.3,0.3,0.6,0.6,0.9,0.8l2.6,2.2l-1.7-1.6c-0.2-0.1-0.4-0.3-0.6-0.5
	c-0.2-0.1-0.3-0.2-0.5-0.3c-0.1-0.1-0.2-0.2-0.3-0.2c-1.3-1.3-1.4-3.3-1.1-5.6c1.7-2.8,5.7-5.6,8.5-8.5c-0.1,0.8-0.3,1.5-0.8,2.1
	l-0.5,1.3l0.4-0.6c1-0.6,1.9-1.9,2.5-3.5c0,0.3,0.1,0.6,0.1,0.8c-2.1,5.3-5.3,12-1.9,16.8l0.9,0.4c0.2,0.6,0.6,1.2,1.2,1.8l4.5,1.6
	l-2.5-1.1c-1.4-0.7-2.2-1.3-2.7-2.1l2.1,1l-1.8-1.2c-0.3-0.1-0.5-0.3-0.7-0.5c-0.1-0.3-0.2-0.6-0.2-0.9c0-3.7,8-8.1,12.9-12.7
	c-2.7,7.9-6.7,18.3,0.9,22.6l3.9,2.3l-2.1-1.5c-0.4-0.2-0.6-0.4-0.9-0.5l4.7,1.7l-2.6-1.1c-3.5-2-4.8-3.7-4.8-5.3
	c0-6.2,20.4-10.4,18.2-18.6c0.7,1.3,1.1,3.6,1.4,6.3c0.1,2.8-0.6,5.6-4.4,7.2c0.9,10.2-0.8,2.5-2.7,12.1c1.2,3.9,4.2,6.6,5.4,7.7
	c1.3,1.1,1.4,2.7,1.9,4.2l-0.5-2.7c-1.1-2.5-4.1-5-4.4-8.6c-0.1-0.7-0.2-1.5-0.3-2.1c0.5,0.2,1.2,0.2,1.6-0.5c2-0.5,3.9-4.8,3.1-7
	c0,0,0-0.1,0-0.2c0.7-0.3,1.1-0.6,1.6-0.9c0.9,4.7,2.6,9,6.2,10.4l2.6,1.3c0.2,0.3,0.2,0.7,0.4,0.9l2.4,0.6
	c-2.1,4.3,1.1,6.3,1.7,7.5c0.9,1.2,2.1,2,3.3,2.9l-1.7-1.7c-1.9-1.4-2.3-5.6-2.7-6.8c0,0,0.1,0,0.1,0c0.3,1.1,0.6,2.2,1.3,2.8
	c1.4,1.9,3,3.1,3.7,4.2c1.6,1.5-1.9,4.9-3,5.5l-3.8,2.7l2.3-1.3c2-1.6,5.7-2.1,6.8-6.6c-1.2-2.3-1.9-5.8-3.1-7.1
	c0.4,0.1,0.8,0.1,1.2,0.2c0.4,1.6,1.1,3,2.3,4.1c0.1,0.2,0.2,0.4,0.3,0.6l0.7,0.3c0.2,0.1,0.2,0.2,0.4,0.3c-0.1-0.1-0.2-0.2-0.3-0.3
	l2.4,0.9l-1.7-0.8c-2.5-1.6-2.5-3.3-1.4-5c1.4-0.2,2.8-1.3,4.1-4.2c1.9-1.7,3.9-3.4,5.2-5.3c0.9,1.5,3.4,2.9,5.1,3.4
	c0.5,0.3,1,0.6,1.6,0.9c0.2,4.4,0.7,11.8-6.3,17.3c-8.6,6.9-23.1,9-36.9,13.7c-13.9,4.1-29.1,9.1-37.9,20.1
	c-7.4,11-10.3,25.7-18.5,19.9c-0.1,0-0.1-0.1-0.1-0.1c-0.1-0.1-0.1-0.1-0.2-0.2c-1.4-2.2-3.2-2.5-4.9-2c0,0-0.1,0-0.1,0
	c-0.1,0-0.3,0.1-0.4,0.2c-0.2,0.1-0.5,0.3-0.7,0.4c-0.2,0.1-0.4,0.1-0.6,0.3c-0.2,0.1-0.3,0.4-0.5,0.6c-0.1,0.1-0.3,0.3-0.4,0.4
	c-0.8,0.8-1.2,1.7-1.2,2.6c0,0.1,0,0.1,0,0.2c0,0.1,0,0.1,0,0.2l-0.1-0.4l0.1,0.5c-0.1,1,0,2,0.6,3c-0.2,0.5-0.9,0.9-1.9,1.3
	c-1.8-0.5-4.3-1.4-6.7-0.9c-5.6-0.5-7.7,8-4,9.7l0.9,2.9l-0.5-2c-0.1-0.3-0.1-0.5-0.1-0.8c0.2,0.1,0.4,0.2,0.7,0.2
	c-0.3-0.3-0.6-0.6-0.8-0.9c-0.4-6.2,8.7-2.2,14.5-2.9c-6.1,4.5-13.5,9.9-10.1,16.2c0.2,0.7,0.6,1.5,1.1,2.3l1.1,3l1,0.4
	c-0.8,2.1-1.2,4-1.1,5.6c-1.4,1.9-2.4,3.8-2.3,5.4l-0.6,3.8l0.5-2.1c0.2-2.2,1.2-4,2.6-5.7c0,0,0,0.1,0,0.2l-0.1,3.5l0.2-2
	c-0.1-0.7,0-1.3,0.1-1.9c3.3-3.9,8.9-6.7,12.9-10.1c-0.7,1.9-1.1,4.1-0.7,6.3c-6.4,0-3.1,12.3-3,14l0.3,4.2l-0.1-2.4
	c2.1-2.9-3.8-13.2,2.2-13c-0.6,1.2-1,2.5-1,3.9c0.2-1.5,0.9-2.7,1.8-3.8c0.4,0.1,0.6,0,1,0.1c0.2-0.5,0.3-0.9,0.4-1.4
	c3.2-2.5,7.8-4.2,10.5-6.9c0.4,1.8,1.1,3.7,2.4,5.2c0.9,2,0.7,4.3,0.3,6.5c-6.7,4.4-2.1,10.6,0.1,13.8c-1.2,0.1-2.5,0.5-2.9,0.8
	c-2.1,1.5-1.3,4.1-0.9,5c0.8,2.1,2.3,3.5,3.8,4.9c-0.7-0.9-1.6-1.6-2.1-2.7c-3-3.1-0.7-8.6,3.8-5.8c0.9-2.9,0-5.4-0.7-7.5
	c0.5-1.4,1.3-3.3,2.2-5.3c1.3-0.9,2.5-2.1,2.4-2.5c0.9-1.1,1.8-2.3,2.7-3.6c0.6,4,2,7.2,5.3,7.7c0.7,2.5,2.2,4.2,4.9,4.3
	c0.5,0.2,1.1,0.3,1.8,0.4l2.2,1l0.2-0.2c0.9,1,1.9,1.6,2.8,1.7l2.2,1.6l1.5-0.8c0.3,0.4,0.7,0.7,1.1,1.1c-0.2,0.8-0.9,1.4-2.2,1.7
	c-5,1-4.6,7.1-4.5,8.3c0.1,1.7-1,2.9-2,4.1l1.8-2c1.2-2.1,0.1-7.8,4-7.9c2.4,1.2,6-2.1,6.6-5.7c1.1,2,2,3.8,2.2,5.3
	c-0.1,1-0.4,1.9-0.6,2.9c-5.4,9-17.8,20.4-34.4,19.2c-11.9-2.5-24.9-3.4-36-2.7c0.7-0.1,1.2-0.2,1.7-0.3c-0.4-2.2-5.9-1.1-11.7,1.5
	c-6.3,1.2-11.5,2.9-14.5,5.5c-1.2,1-3,3.1-4.1,5.3c0,0,0,0.1-0.1,0.1c-0.1,0.1-0.1,0.3-0.2,0.4c-0.1,0.1-0.1,0.2-0.2,0.4
	c-0.1,0.2-0.2,0.5-0.2,0.7c-0.1,0.4-0.2,0.8-0.2,1.1c0,0.2,0,0.4,0,0.6c0,0.2,0.1,0.4,0.1,0.6c0,0.1,0,0.1,0,0.2
	c-2.2,1-4.3,2.8-4.4,6.6c-0.9,4.7,1.3,8.8,3.4,11.3c0,0.8,0.2,1.6,0.7,2.1c0.2,0.4,0.2,0.8,0.5,1.1l2.1,2l-1-1.2
	c-0.3-0.4-0.4-0.8-0.5-1.3c0,0,0.1,0,0.2,0c0.2,0.5,0.5,0.8,0.8,0.9c0.1,0.2,0.2,0.4,0.4,0.6c0,0,0.1,0.1,0.1,0.1
	c0.6,0.8,1.3,1.4,2.4,1.5c0-0.2,0-0.4-0.1-0.6l-1.4-7.5c0-0.6,0.1-1.3,0.3-1.8c2-1.7,4.4-3.1,6.4-4.4c-2.7,4.8-3.9,14.3-0.3,16.8
	c0.2,0.4,0.6,0.8,1.1,1.1l2.3,1.5c1.3,0.8,2.8,1.1,3.9-0.2c-0.5-1-1.5-1.5-2.5-1.8c-1.1-1.7-2.7-3.9-2.6-5.8
	c2.7-3.3,8.4-5.9,10.4-6.8c-0.2-0.4-0.4-0.7-0.7-0.9l0.1-0.1c0.4,0.3,0.9,0.4,1.3,0.5c-3.5,5.3-4.3,19.1,2.6,19.6l1.9,1.9l-1-1.2
	c0,0,0-0.1,0-0.1l1.8,1.3l-1.4-1.2c-0.3-0.1-0.5-0.4-0.7-0.5c-3.8-4.4,2.6-9.5,7-12.6c8.1,9.7,25.8-0.6,30-7.2
	c-0.1,0.5-0.2,1-0.3,1.6l-0.3,1.5c0.1,0.2,0.3,0.3,0.4,0.5c0.2,0.6,0.4,1.2,0.9,1.7c1.2,1.4,2.8,2.3,4.7,2.7
	c9.6,3.7,25.2-2.5,31.3-11.5c0.5,4.9,3.5,10,6.8,11.1c0-0.2-0.1-0.5-0.2-0.8l1.7,1.8l-1-1.3c-0.3-0.3-0.5-0.5-0.7-0.8
	c-0.1-0.2-0.1-0.4-0.2-0.6c0.2-0.8,0.5-1.7,0.9-2.8c1.4-1.3,3.7-2.6,5.1-4.3c0.2-2.3,0.6-4,0.8-5.6c0.2,0.8,0.4,1.6,0.8,2.4
	c4.9,3.8,7.9,2.4,5.6,6.2c2.2-0.7,2.6-1.5,2.3-2.6c0,0,0.1-0.1,0.1-0.1c1.2-1.3,1.9-3.1,2.4-5.1c2.5,4.2,6.2,4.5,6.5,8l-0.1,0.8
	l0.1-0.6c0,0.2,0.1,0.3,0,0.5c1.1-0.5,1.2-1.7,0.6-3.2c0.9-0.6,1.7-1.3,2.3-2.2c1.7-1.1,3.9-2.2,5-4.8c0.2-0.9,0.2-1.7,0.2-2.4
	c2.1,4.4,5.5,8.5,7,10.3c0.2-0.2,0.1-0.6,0.2-0.9l0.5,1l-0.4-1.1c0-0.3,0.1-0.6,0-1c1.2-4.1,0.6-10.7-0.3-15.8
	c4.2,4.1,12.9,7.5,11.4,11.4c2-1.7,1.7-3.3,0.4-4.9c-0.1-0.4-0.2-0.8-0.2-1.2l-0.4-2.1c-0.2-0.1-0.4-0.3-0.6-0.5
	c-0.4-0.7-0.9-1.3-1.6-1.9c-0.6-0.3-1.1-0.7-1.5-1.1c-4-7,10.4-14.2,8.9-25.2c-0.1-5.7-3.8-10-7.3-13.4c-0.8-1.3-1.8-3.1-2.7-4.8
	c1.1,1.1,2.2,2.1,2.7,2.9l0.8,1.2l-0.3-0.8c-0.2-0.5-0.4-1.1-0.7-1.7c2.1,3.2,4.3,6.4,5.7,8.4c0.3,1,0.9,1.8,1.5,2.5l1.3,2.7
	l-0.9-2.1c0.1,0.1,0.2,0.3,0.3,0.4c1.4-1.1-0.3-5.7-1.9-9.5c1.4,1.7,2.6,3,3.4,3.9c0.2-0.1,0.3-0.3,0.4-0.6c0.3,0.5,0.6,1.1,1.1,1.3
	c0.8-0.7,0.6-2.2,0-3.9c0.1-1.6-0.8-4-1.9-6c-0.1-1.4-0.4-2.9-1.7-4.3c-4.1-3.3-5.6-2.7-2.3-4.7c3.8,3,6.6,10.3,11.1,10.8
	c0.1-0.4-0.2-1-0.5-1.7l-0.2-0.5c0.6-6.5-8.8-13.7-7.5-17.4c2.2-0.5,5.9,1.1,7.9,2.9l0.2,0.5l-0.2-0.5c0.5,0.5,0.9,0.9,1.1,1.4
	c1.9-2-0.1-3.9-2.8-5c-0.1-0.1-0.2-0.1-0.3-0.2c-4.9-7.4-2.5-22.2,2.6-28.1c0,3.5,0.6,7.3,2.4,11.3c3.5,5.4,6.8,10.6,9.4,15.5
	c0.3,4.5-0.6,9.3-4.1,13.9c-2.3,3.1-6.3,8.5-4.5,14.4c3,4.9,5,6.6,5.2,11.1c-0.2,10.3,9.6,12.5,12.8,12c3.4,0.4,6.2,2.2,8.1,5
	c-1.2-1.5-2.2-3.2-4-4c-4.4-2.5-14.7-1.3-14.6-10.6c2-9-8.8-15.9-2.2-21.3c2.7-2.6,5.6-7,7.2-11.8c1.4,3.8,2.2,7.3,1.9,10.5
	c-0.2,2.5-0.9,4.9-2.4,7c-0.5,1.9-0.1,3.5,0.6,5.1c-0.2,4.5,1.6,8.6,3.2,9.6l3.1,3l-1.6-1.9c-3.7-3.1-4.3-5.8-3.4-8.2
	c0.7,1,1.3,1.9,1.9,2.8l-1.8-3c1.5-3.7,6.3-6.9,9.2-10.6c-1.8,9-3.8,24.9,4.5,27.5l4.2,1.5l0.5-1l1.6,0.8l-2-1.3
	c-6.8-3.6-0.5-11.1,3.4-18.2c-0.2,8.5,1,18.7,6.8,20.8l4.1,1.3l0.5-0.9l-1.5-1.8c-5.5-4-0.4-11.4,2.2-18.3c0.8,2.7,1.9,5.4,3.2,7.7
	c0.3,1,0.6,1.9,0.9,3c1.9,4,4.4,4.4,6.3,4.9l0.1,0.2l-0.1-0.2c1.5,0.4,2.5,0.7,2.7,2.8c1.4,3.4,2.3,6.8,3.5,8.5
	c0.8,1.7,2.8,2.6,4.5,2.7c-1-0.4-2.1-0.3-2.7-1.2c-2.3-2.1-2.3-5.9-2.9-9.6c0.6-3.8-3.7-6.6-5.9-8c-0.1-1.9,0.2-4.3,0.4-6.7
	c1,1.6,2.5,3.3,4.8,4.9c7.9-2.5,6.1,11.6,12.2,11.1c1.6,0.3,3.1-0.2,4.6-0.3l-2.6,0c-8.4,1.9-1.1-12.1-11.6-15.2
	c-2.7,1-3.4-2.3-4.2-5.8c8.8,3.2,26.1,6.1,33.4,22.7c5.8,11.8-8.3,17.1-17.6,10.2c-10.5-5.5-19.7,2.3-23.5,4.9
	c-2.1,1.2-4.2,3.8-5,6.6c-0.4,1.5-0.4,3.1,0.3,4.6c-2.7-0.6-7.5,1.1-6.5,7.5c0.2,0.7,0.4,1.2,0.6,1.7c-5.5-2.2-6.7,14.5-1.8,16.9
	c0.1,0.2,0.1,0.5,0.2,0.6l1.5,2.4l-0.8-1.4c-0.2-0.4-0.2-0.9-0.3-1.3l1.9,1.9l-1-1.2c-0.4-0.4-0.7-0.9-1-1.3
	c-0.3-4.5,5.7-8.4,9.7-10.8c0.8,0.1,1.4,0,1.9,0c-2.9,3.6-5,10.2-2.6,12.4l0.4,2.4l0.4,0.2l-0.4,1.3l0.5-1.1c0.8-4.3,6-5.1,9.7-6.9
	c2.9,2.6,12.2,1.7,15.4-2c-0.6,3.9-0.2,8,2.9,8.2c0.1,0,0.1,0.1,0.2,0.1l1.2,0.9l0.3,1l-0.2-0.9l0.3,0.2l-0.3-0.3v-0.1
	c-0.7-3.8,3.9-5.4,6.7-7.5c-1.1,3.3,29.9,0,32.7-1.7c3.4-2.2,10.5-11.8,13.9-20.6c0.1,1,0.1,2,0.1,3.2c5.7,1.3,5.3,11.3,9,13
	c1.1,0.9,2.3,1.6,3.4,2.4l-1.8-1.5c-5.2-2.7-0.6-10.8-6.7-16.8l-0.5-0.4c0.7-1.1,1-2.4,1.1-3.7c0,0.1,0.1,0.3,0.1,0.4l0.4,1.8l0-1.1
	c0.2-0.9,0.4-2.3,0.6-3.8c1.8,10.2,10.5,18.5,15.5,19.4c-6-2.3-8.3-9.1-10-16.5c2.9-10-4.3-18.3-7.8-27c0.9,1.7,1.9,3.5,3,5.5
	c5.2,7.3,11.4,9.5,11.7,14l1.5,4.2l-0.6-2.4c0.2-5.1-4.8-12-7.8-16.6c-2.3-5.2-5.3-11.3-9.4-13.6c0-0.1,0-0.2,0-0.2
	c7,2.1,12.3,2.6,16.1,8.9c1.3,3.2,2.6,5.9,4.6,6.8c1.8,2.1,4.4,2.5,6.8,3.3l-4-1.6c-9.1-4.1-3.7-20.7-16-28.1
	c-4.1-2.2-7.3-2.6-9.7-3.7c-0.8-2.7-1.2-5.9-2.3-8.2c-3.6-7.1-9.4-13.3-17.5-13.3c-11.8-0.1-23.9,0.9-27-7.3
	c5.4,3.1,13.3,4.3,15.3,0l2.9-1.4l-1.8,0.6c-8.4,3.6-15.8-3.5-20.2-8.3l1.3-1.8c4.8,4.7,13.8,8.7,17.3,6l3.2-0.4l-1.9,0
	c-6.4,1.4-11.1-5.4-16-9.6c4.7,2,12.7,2,14.5,1l2.5-0.2l-1.4-0.2c-1-0.2-2.1-0.4-3.2-0.8l0.4-1.6l-0.9-1c-2.2-3.4-6.6-9.2-11.4-11
	c3.6,0.3,7.2-0.6,7.5-3.4l1.9-1.6l-0.3,0.2l-0.3-0.6c0.4-0.1,0.7-0.3,1.1-0.6l2.4-0.4l-1.4,0c-6.1,1.8-7.1-7.4-11.9-9.8
	c-1.1-3.5-1.9-7.5-2.8-11.4c6.1,5.1,15.2,10.3,20.4,15.1c0.7,2.1,0.2,4.6,0.2,8.7c1.4,6.7,7.4,6.8,8.8,8.1c1.8,1,2.7,2.9,2.8,5
	c-0.1-1.1,0-2.4-0.7-3.4c-1.5-3.3-7.7-3.7-8.4-8.6c-0.6-1.2,0-2.9,0.5-4.8l1.1,1.7l0.7,1.7l0.2,0.4c0,0.2,0,0.3,0,0.5l-0.3,3.4
	l0.4-1.9c0.2-0.2,0.3-0.6,0.4-0.9l0.6,1.5l-0.6-1.6c2-4,2-11.7-0.3-17.3c1.8,2,4.1,4.3,6,7.7c1.8,3.1,3.2,6.7,3.8,10
	c0.9,1.8-1.1,2.7,1.9,5c1.3,0,2.4,0.1,3.2,0.2l4.5,0.6l-2.5-0.6c-8.3,1.1-2.7-7.6-6.1-15.3c0-0.1-0.1-0.2-0.1-0.4
	c1.8,1.9,2.9,4,2.4,6.3l0.1,0.8l0,2l0.1-1.4l0.4,2.2l-0.1-2.1c0.6-1.5,0.6-3.1,0.3-4.8c0.3-6.1-1.1-14.1-5.5-16.8
	c5.3,2.6,18.1,12.9,18.2,19.8l0.9,3.8l-0.1-0.6l0.9-0.2l-0.1-2.2c1.6-7-2.9-20.8-10.3-24.3c6.1,1.2,13.9,3.3,12.2,9.5l0.5,3.3
	l-0.1-1.9c0.1-0.3,0.2-0.6,0.4-0.9l-0.2,3.6l0.2-2c2.6-3.8,1.8-8-0.7-11.4c2.9-0.8,5-2.5,6.6-4.3c0.2,0,0.4,0.1,0.6,0.1
	c0.5-0.5,0.9-1.1,1-1.9c0.7-0.8,1.4-1.6,2-2.2c2.8-3.2,6.7-3.5,8.8-4.2c2-0.4,3.7-1.5,5.5-2.5l-3.1,1.5c-0.7,0.2-1.4,0.3-2.1,0.5
	l-2-1.2c-1.9-0.5-5.6-7-8.2-1.6c-1.7,3.2-4.9,4.8-8.3,5.6c-2,0.5-4,0.9-6,1.2c5.6-5.9,11.4-14.1,15.3-13.1l4.1-1l-2.3,0.4
	c-1.3-0.3-2.6-0.3-3.7-0.1c0.3-0.1,0.7-0.2,1.1-0.3l2.9-0.9l-1.7,0.4c-4.1,1.8-14.5-0.2-19.4,3.7
	C412.5,302.2,413.5,301.3,414.7,300.4z M95.4,236.3c1-0.4,1.7-1.1,2.1-2.1c0,0.1,0,0.2,0,0.3c0,0.2-0.1,0.5-0.1,0.7l-0.2,0.6
	C96.6,236.1,96.1,236.2,95.4,236.3z M200.9,408.6c1,1.1,1.6,2.3,1.6,3.3C201.8,410.9,201.3,409.8,200.9,408.6z M203.2,117.7
	c0,0,0.1,0,0.1,0c0,0.1-0.1,0.2-0.2,0.3c0.1,0.2,0.3,0.4,0.5,0.6c0,0,0,0,0,0.1c-0.3-0.2-0.7-0.3-1.2-0.4c-0.2,0-0.4,0.1-0.6,0.2
	C202.3,118.2,202.8,117.9,203.2,117.7z M239.7,283.1c0,0.4-0.1,0.8-0.1,1.2c-0.2,0-0.3,0-0.5,0.1
	C239.3,283.9,239.5,283.5,239.7,283.1z M230.3,63.7c0.1,0.1,0.1,0.1,0.2,0.2c-0.1,0-0.2-0.1-0.3-0.1
	C230.2,63.8,230.2,63.7,230.3,63.7z M230.7,63.5C230.7,63.5,230.7,63.5,230.7,63.5c0.5,0.2,0.9,0.4,1.4,0.6c-0.1,0-0.2,0-0.4,0
	C231.3,63.9,231,63.7,230.7,63.5z M237.9,67c0.5,0.2,1.1,0.5,1.6,0.7c-0.6-0.2-1.2-0.4-1.7-0.7C237.8,67,237.9,67,237.9,67z
	 M168.4,128.6c1.4,0.5,2.9,0.8,4.7,0.7c2,0,3.8-1.6,5.1-3.4c0.6,0.5,2.2,1,3.3,1.5c-4.2,1.6-7.5,5.4-9.5,5.4
	c-0.4-0.5-0.4-1.1-1.8-1.6C169.4,130.6,168.9,129.6,168.4,128.6z M177.5,136c-0.6-0.5-2.3-1.2-3.7-1.4c0-0.1-0.7-0.6-1.2-1.1
	c3.8,0,9.3-4.8,12.8-2c0,0,0.1,0,0.1,0.1c0,0-0.1,0-0.1,0.1c-2.7,0.8-1.7-1.8-6.8,2.7c-0.7,0.7-0.9,1.3-1,1.6
	C177.6,136,177.6,136,177.5,136C177.5,136,177.5,136,177.5,136z M163.9,244.3c0.1-2.8,1.2-6,2.2-9.3c0.4,1.3,1.1,2.7,2,4.1
	C168.7,241.5,168,243.6,163.9,244.3z M233.3,286.5c-0.5-0.2-1-0.5-1.4-0.9l-1.2-3.2c0-3,1.7-6.9,3-10.9c0.4,3,0.2,5.8-1.4,7.6
	l-0.8,2.5l0.5-1.2c2.4-2.3,3.5-6.6,3.4-10.9c0.4,0.9,0.7,2,0.9,3.4c0.4,3.3,0.3,6.5-0.6,8.6l-0.6,2.9l0.5-1.6c0.3-0.7,0.7-1.7,1-2.7
	c-0.2,2.5-1,4.9-2.2,6.1c-0.1,0.2-0.2,0.4-0.3,0.6L233.3,286.5z M415.4,451.7c0,0,0,0.1,0,0.1c-0.1-0.1-0.2-0.3-0.4-0.4
	C415.2,451.5,415.3,451.6,415.4,451.7z M425.5,419.9c-1.4-0.8-2.8-1.4-4.2-2.1C422.9,418.2,424.3,419,425.5,419.9z M364.2,210.8
	c0,0.4,0,0.7,0,1.1c-0.2-1.2-0.4-2.4-0.6-3.6C363.8,209.1,364,210,364.2,210.8z M428.2,318c-0.1,0-0.1,0-0.2,0
	c0.2-0.2,0.4-0.4,0.6-0.6C428.5,317.6,428.4,317.8,428.2,318z M431,309.7c0.8-6.1,2.6-1.5,4.9-1.6l3.9,2.1c-2.7,0.4-5.9,0.4-9.1,2.1
	c-2,1-3.7,2.5-5.4,3.8l0.2-0.2l-0.2,0C427.8,314.3,429.8,312.1,431,309.7z M409,307.8c0-0.1,0-0.1,0-0.2c-0.1-0.3,0-0.6,0-1
	c0.2-0.4,0.5-0.7,0.7-1.1C409.4,306.2,409.2,306.9,409,307.8z"/>
</svg>
